<?xml version="1.0" standalone="no"?>
<!DOCTYPE svg PUBLIC "-//W3C//DTD SVG 20010904//EN"
 "http://www.w3.org/TR/2001/REC-SVG-20010904/DTD/svg10.dtd">
<svg version="1.0" xmlns="http://www.w3.org/2000/svg"
 width="1254.000000pt" height="1254.000000pt" viewBox="0 0 1254.000000 1254.000000"
 preserveAspectRatio="xMidYMid meet">

<g transform="translate(0.000000,1254.000000) scale(0.100000,-0.100000)"
fill="#000000" stroke="none">
<path d="M5858 12223 c7 -3 16 -2 19 1 4 3 -2 6 -13 5 -11 0 -14 -3 -6 -6z"/>
<path d="M6738 12223 c7 -3 16 -2 19 1 4 3 -2 6 -13 5 -11 0 -14 -3 -6 -6z"/>
<path d="M5738 12213 c6 -2 18 -2 25 0 6 3 1 5 -13 5 -14 0 -19 -2 -12 -5z"/>
<path d="M6838 12213 c7 -3 16 -2 19 1 4 3 -2 6 -13 5 -11 0 -14 -3 -6 -6z"/>
<path d="M5905 12190 c-791 -50 -1596 -282 -2280 -657 -60 -33 -137 -75 -170
-93 -68 -37 -492 -319 -545 -363 -8 -6 -35 -28 -60 -47 -25 -19 -65 -51 -89
-72 -25 -22 -51 -36 -58 -33 -8 2 -12 1 -8 -4 7 -13 -117 -122 -132 -116 -7 2
-12 -1 -10 -8 1 -7 -3 -11 -9 -10 -7 1 -20 -8 -30 -20 l-19 -22 23 19 c12 11
22 15 22 9 0 -5 -11 -16 -25 -23 -14 -7 -25 -17 -25 -22 0 -4 -5 -8 -11 -8 -5
0 -7 6 -3 13 4 6 -7 -1 -24 -17 -17 -16 -29 -33 -26 -37 3 -5 -7 -19 -22 -31
-16 -13 -38 -34 -50 -46 -13 -13 -27 -21 -32 -18 -9 5 -41 -24 -57 -53 -6 -10
-4 -12 6 -6 8 5 -2 -9 -21 -31 -19 -23 -38 -39 -42 -37 -5 2 -8 -1 -8 -7 0 -6
-4 -8 -10 -5 -6 3 -10 0 -10 -8 0 -7 -21 -32 -46 -55 -29 -25 -43 -45 -38 -53
4 -7 3 -9 -3 -6 -5 3 -17 -2 -26 -11 -8 -9 -23 -23 -32 -31 -9 -7 -14 -20 -10
-29 3 -9 3 -13 -1 -10 -3 4 -14 -1 -23 -10 -11 -12 -13 -13 -7 -2 4 8 -8 -3
-28 -25 -20 -22 -36 -45 -36 -52 0 -6 -10 -19 -21 -27 -12 -8 -50 -50 -85 -93
-61 -74 -78 -103 -52 -87 7 4 8 3 4 -5 -4 -6 -11 -9 -16 -6 -11 7 -33 -22 -26
-34 4 -5 1 -13 -5 -17 -8 -5 -10 -2 -5 7 4 8 1 5 -8 -5 -8 -10 -13 -23 -9 -29
3 -6 1 -7 -5 -3 -13 8 -35 -28 -24 -39 4 -5 2 -5 -5 -2 -14 8 -75 -81 -66 -96
3 -6 1 -7 -5 -3 -11 7 -17 -6 -13 -27 1 -5 -3 -6 -8 -3 -30 19 -448 -718 -542
-957 -11 -29 -27 -65 -34 -82 -8 -16 -23 -55 -35 -85 -11 -30 -25 -64 -30 -75
-71 -158 -201 -597 -258 -870 -165 -787 -181 -1509 -52 -2292 57 -341 169
-749 302 -1093 423 -1097 1188 -2054 2168 -2716 682 -460 1399 -753 2205 -903
629 -117 1361 -115 1960 5 707 141 1288 368 1930 751 148 88 318 208 580 408
194 147 484 423 697 661 225 251 483 601 659 894 120 200 236 416 292 545 19
44 57 130 84 190 27 61 62 146 78 190 15 44 31 85 35 90 6 8 50 145 130 400
52 167 136 571 167 805 4 30 7 57 8 60 1 3 5 41 8 85 4 44 11 105 14 135 8 65
7 440 -2 625 -4 72 -8 171 -11 220 -13 259 -52 562 -115 885 -19 97 -96 391
-133 510 -20 63 -38 120 -39 125 -15 53 -54 164 -78 220 -5 11 -16 43 -25 70
-8 28 -30 84 -49 125 -18 41 -41 94 -50 118 -10 23 -22 42 -27 42 -4 0 -7 3
-6 8 3 13 -14 62 -21 58 -3 -2 -7 8 -8 22 0 15 -6 28 -12 30 -6 2 -9 8 -5 13
3 5 0 9 -6 9 -6 0 -8 5 -4 12 5 8 2 9 -11 4 -14 -5 -16 -4 -7 7 9 10 5 22 -13
49 -13 20 -21 39 -17 43 4 5 -1 5 -11 2 -10 -4 -16 -3 -13 2 3 5 -1 14 -9 21
-8 7 -15 17 -15 23 0 6 7 2 16 -9 8 -10 12 -12 8 -4 -4 8 -16 26 -28 39 -12
13 -16 21 -9 17 18 -10 -17 56 -41 79 -12 11 -15 16 -7 10 8 -5 3 6 -12 26
-15 20 -25 38 -22 41 3 3 -3 11 -12 19 -17 13 -17 13 -3 -6 14 -19 14 -19 -3
-6 -13 10 -15 17 -6 27 9 11 6 16 -14 23 -14 5 -28 15 -33 22 -4 8 -3 10 4 5
7 -4 12 -5 12 -1 0 14 -43 95 -51 95 -5 0 -8 3 -7 8 4 10 -35 72 -45 72 -4 0
-5 5 -1 12 5 7 3 8 -5 3 -9 -5 -8 -13 7 -29 10 -11 22 -28 26 -36 4 -8 -2 -3
-14 13 -12 15 -25 25 -29 22 -5 -2 -7 15 -5 38 2 28 0 37 -6 27 -5 -8 -7 -17
-5 -20 2 -4 -3 -7 -11 -7 -10 0 -11 4 -4 11 14 14 13 29 -2 20 -10 -5 -10 -4
-1 6 10 10 8 19 -7 40 -11 15 -17 30 -13 34 3 3 0 6 -8 6 -8 0 -20 14 -26 30
-6 17 -17 29 -25 28 -7 -2 -12 3 -10 10 1 8 -2 11 -8 7 -6 -4 -10 5 -11 22 0
27 -1 27 -9 6 -5 -13 -17 -22 -27 -22 -17 1 -17 2 0 6 9 2 17 11 17 20 0 13
-3 13 -15 3 -20 -16 -19 -6 1 14 12 13 12 16 2 16 -8 0 -19 -5 -24 -10 -7 -7
-11 -6 -11 4 0 8 5 14 10 13 5 -1 11 6 12 16 3 14 0 16 -10 7 -10 -8 -15 -8
-21 1 -4 8 -3 9 4 5 7 -4 12 -1 12 9 0 9 -4 13 -10 10 -5 -3 -10 0 -10 9 0 8
-5 16 -11 18 -5 2 -12 12 -13 23 -2 11 -9 19 -15 18 -6 -2 -11 3 -11 11 0 10
-7 13 -20 11 -11 -2 -18 0 -15 4 5 9 -24 26 -38 22 -5 -1 -6 3 -2 9 5 8 11 7
21 -1 8 -6 14 -8 14 -4 0 4 8 1 18 -6 15 -13 16 -12 4 3 -8 10 -19 16 -25 15
-7 -1 -11 4 -9 11 2 10 -2 10 -16 3 -14 -7 -19 -6 -19 4 0 8 4 12 8 9 4 -2 11
0 14 6 4 6 1 9 -6 8 -7 -2 -14 4 -14 12 0 8 -7 14 -14 12 -8 -2 -11 3 -8 12 6
16 -6 30 -16 19 -9 -8 12 -45 23 -38 4 3 6 -5 2 -17 -5 -21 -6 -21 -13 -2 -4
10 -8 15 -8 10 -1 -5 -7 -3 -14 3 -8 6 -16 9 -19 6 -2 -3 -5 2 -5 10 0 11 4
12 14 4 16 -14 17 -5 2 22 -8 16 -14 18 -24 9 -9 -8 -15 -8 -20 0 -4 6 -3 10
2 9 4 -1 10 0 13 1 21 8 39 7 34 -2 -4 -7 -2 -8 4 -4 14 8 -16 55 -33 53 -5
-1 -9 4 -7 11 1 8 -2 11 -7 8 -5 -4 -11 -3 -14 1 -2 5 -2 2 -1 -4 4 -16 -13
-17 -18 -2 -2 5 -11 11 -20 13 -10 1 -21 6 -25 11 -4 4 -2 5 6 0 10 -6 11 -2
6 16 -4 13 -12 27 -17 30 -7 4 -6 9 1 13 6 4 13 -4 17 -19 3 -14 10 -25 14
-25 15 0 -2 40 -24 58 -12 9 -25 25 -29 35 -3 9 -16 17 -27 17 -14 0 -19 -4
-14 -12 5 -9 3 -9 -9 1 -20 16 -13 32 11 24 19 -7 -12 28 -142 161 -49 50 -94
90 -99 88 -4 -1 -6 2 -3 6 3 5 -4 18 -17 28 -21 19 -21 19 -7 -1 14 -19 14
-19 -2 -6 -10 7 -18 18 -18 23 0 12 -139 148 -205 201 -27 21 -56 48 -63 58
-7 11 -18 19 -24 19 -6 0 -18 8 -27 18 -17 18 -56 51 -111 92 -18 14 -38 30
-44 35 -13 12 -95 73 -191 142 -503 361 -1154 667 -1750 823 -347 90 -597 134
-950 164 -159 14 -656 17 -840 6z m590 -1470 c573 -49 1117 -257 1580 -604
143 -107 375 -335 433 -426 52 -80 92 -201 92 -277 0 -70 -6 -66 -14 8 -14
140 -79 251 -246 420 -214 215 -434 374 -721 519 -303 154 -553 236 -894 296
-203 36 -557 45 -775 20 -585 -68 -1144 -300 -1597 -665 -107 -86 -282 -262
-331 -333 -59 -86 -98 -190 -112 -303 -7 -55 -8 -53 -5 25 4 96 31 184 86 276
74 124 331 364 549 513 567 389 1297 587 1955 531z m-4025 -3 c0 -2 -10 -12
-22 -23 l-23 -19 19 23 c18 21 26 27 26 19z m-150 -140 c0 -2 -10 -12 -22 -23
l-23 -19 19 23 c18 21 26 27 26 19z m4741 -30 c-10 -9 -11 -8 -5 6 3 10 9 15
12 12 3 -3 0 -11 -7 -18z m-727 -45 c3 -5 -1 -9 -9 -9 -8 0 -12 4 -9 9 3 4 7
8 9 8 2 0 6 -4 9 -8z m-257 -8 c-3 -3 -12 -4 -19 -1 -8 3 -5 6 6 6 11 1 17 -2
13 -5z m56 -1 c-7 -2 -21 -2 -30 0 -10 3 -4 5 12 5 17 0 24 -2 18 -5z m310 0
c-18 -2 -48 -2 -65 0 -18 2 -4 4 32 4 36 0 50 -2 33 -4z m105 -10 c-10 -2 -26
-2 -35 0 -10 3 -2 5 17 5 19 0 27 -2 18 -5z m-635 -10 c-7 -2 -19 -2 -25 0 -7
3 -2 5 12 5 14 0 19 -2 13 -5z m720 0 c-7 -2 -21 -2 -30 0 -10 3 -4 5 12 5 17
0 24 -2 18 -5z m3794 -183 c1 -11 -2 -20 -5 -20 -4 0 -8 9 -9 20 -1 11 2 20 5
20 4 0 8 -9 9 -20z m-8367 -4 c0 -2 -8 -10 -17 -17 -16 -13 -17 -12 -4 4 13
16 21 21 21 13z m8400 -20 c0 -2 -7 -7 -16 -10 -8 -3 -12 -2 -9 4 6 10 25 14
25 6z m108 -132 c2 -1 -4 -4 -13 -8 -9 -3 -13 -2 -10 3 3 5 1 12 -5 16 -5 3
-10 1 -10 -6 0 -7 -3 -10 -6 -6 -3 3 -3 11 1 17 5 8 11 7 23 -2 10 -7 18 -13
20 -14z m-4107 -53 l29 -29 0 -176 0 -176 181 0 181 0 29 -29 29 -29 0 -171
c0 -165 -1 -171 -24 -198 l-24 -28 -186 0 -186 0 0 -176 c0 -162 -2 -177 -20
-197 -11 -12 -31 -24 -43 -27 -42 -11 -381 0 -404 13 -36 20 -43 65 -38 232
l6 155 -187 -2 c-249 -2 -234 -17 -234 222 l0 177 29 29 29 29 176 0 176 0 0
161 c0 174 9 216 53 237 13 6 99 11 210 11 l189 1 29 -29z m-4591 -15 c0 -2
-8 -10 -17 -17 -16 -13 -17 -12 -4 4 13 16 21 21 21 13z m8795 -106 c3 -6 -1
-7 -9 -4 -18 7 -21 14 -7 14 6 0 13 -4 16 -10z m42 -33 c0 -8 -6 -14 -14 -14
-9 0 -10 4 -2 14 6 7 12 13 14 13 1 0 2 -6 2 -13z m53 -53 c0 -8 -19 -13 -24
-6 -3 5 1 9 9 9 8 0 15 -2 15 -3z m127 -167 c0 -8 -6 -14 -14 -14 -9 0 -10 4
-2 14 6 7 12 13 14 13 1 0 2 -6 2 -13z m-227 -97 c12 -16 19 -30 16 -30 -2 0
-14 14 -26 30 -12 17 -19 30 -16 30 2 0 14 -13 26 -30z m288 10 c7 -11 11 -20
9 -20 -2 0 -12 9 -22 20 -10 11 -14 20 -9 20 5 0 15 -9 22 -20z m123 -197 c13
-16 12 -17 -3 -4 -17 13 -22 21 -14 21 2 0 10 -8 17 -17z m-6890 -333 c22
-124 70 -371 105 -550 64 -327 82 -444 39 -250 -87 384 -195 957 -194 1025 1
28 4 39 6 25 2 -14 22 -126 44 -250z m4186 163 c-8 -124 -161 -872 -174 -859
-3 2 23 143 55 312 33 170 73 380 89 466 15 87 30 158 32 158 2 0 1 -35 -2
-77z m2593 -123 c11 -22 18 -40 15 -40 -2 0 -14 18 -25 40 -11 22 -18 40 -15
40 2 0 14 -18 25 -40z m50 -90 c11 -22 18 -40 15 -40 -2 0 -14 18 -25 40 -11
22 -18 40 -15 40 2 0 14 -18 25 -40z m324 -86 c3 -8 2 -12 -4 -9 -6 3 -10 10
-10 16 0 14 7 11 14 -7z m-165 -239 c0 -5 -11 10 -24 35 -13 25 -24 50 -24 55
0 6 11 -10 24 -35 13 -25 24 -49 24 -55z m60 -140 c-1 -13 -57 107 -57 120 0
6 13 -17 28 -50 16 -33 29 -64 29 -70z m-4469 11 c588 -73 1086 -227 1309
-407 35 -28 64 -49 66 -47 2 2 14 59 28 128 14 69 24 100 21 70 -7 -72 -34
-192 -46 -207 -7 -9 -29 1 -84 39 -302 205 -859 358 -1484 408 -161 12 -629 4
-790 -14 -581 -65 -1019 -194 -1323 -389 -87 -55 -111 -58 -45 -4 252 204 805
372 1423 432 193 19 741 13 925 -9z m4514 -117 c20 -50 35 -93 33 -96 -3 -2
-18 31 -35 74 -17 43 -33 86 -37 96 -4 9 -5 17 -2 17 3 0 21 -41 41 -91z m60
-159 c5 -17 4 -20 -2 -10 -5 8 -13 26 -16 40 -5 17 -4 20 2 10 5 -8 13 -26 16
-40z m114 -350 c0 -8 -6 1 -13 20 -7 19 -13 42 -13 50 0 8 6 -1 13 -20 7 -19
13 -42 13 -50z m-7778 -34 c124 -23 234 -70 337 -145 l43 -31 -45 -89 c-25
-49 -45 -92 -45 -95 0 -2 -9 -25 -20 -50 l-20 -47 -55 46 c-318 258 -762 104
-917 -318 -185 -504 102 -1103 590 -1228 146 -37 309 -21 421 42 l54 31 -7
-25 c-3 -14 -2 -27 3 -29 5 -2 11 -10 13 -18 5 -22 22 -39 33 -32 6 3 7 2 3
-2 -3 -4 2 -27 12 -51 10 -24 16 -46 13 -49 -4 -3 -2 -6 3 -6 5 0 11 -13 12
-30 2 -24 -4 -34 -35 -54 -21 -14 -74 -37 -118 -53 -75 -25 -91 -27 -245 -28
-194 0 -262 15 -425 94 -227 111 -403 294 -525 546 -92 189 -130 356 -130 576
0 201 33 347 120 524 95 194 238 349 400 434 175 91 348 120 530 87z m5479 -6
c165 -34 308 -116 436 -251 128 -135 215 -297 267 -494 28 -110 31 -134 32
-285 0 -123 -4 -187 -17 -250 -85 -408 -308 -716 -632 -875 -168 -82 -247
-100 -440 -100 -149 0 -165 2 -240 28 -112 39 -155 69 -155 108 0 16 7 43 15
58 8 16 11 31 8 35 -4 3 0 6 7 6 7 0 10 3 7 6 -8 8 33 85 42 80 3 -2 7 7 7 21
1 13 4 26 6 28 2 3 33 -11 69 -29 89 -47 156 -60 280 -53 349 17 661 312 754
712 96 419 -125 870 -470 960 -177 46 -385 -7 -505 -130 l-39 -40 19 -58 c11
-32 22 -75 25 -95 3 -20 -8 5 -24 57 -17 52 -28 98 -26 102 8 11 -16 69 -26
63 -5 -3 -6 1 -4 9 7 17 -70 186 -88 193 -17 6 -131 183 -124 191 7 7 107
-145 107 -163 0 -8 25 4 63 30 196 137 418 183 646 136z m2350 -145 c38 -153
56 -242 46 -220 -5 11 -95 372 -95 382 0 24 14 -23 49 -162z m-7349 108 c-12
-21 -36 -62 -52 -90 -17 -29 -32 -53 -35 -53 -10 0 12 48 53 112 46 71 72 95
34 31z m1455 -242 c263 -70 464 -237 596 -495 28 -56 52 -103 54 -105 2 -2 17
26 33 62 35 77 108 192 166 261 100 120 300 241 466 282 115 29 288 24 405
-10 256 -77 448 -256 546 -510 42 -108 58 -206 59 -352 0 -294 -100 -543 -301
-743 -56 -55 -193 -151 -216 -151 -23 0 -14 -13 61 -84 126 -122 227 -299 272
-478 24 -100 29 -315 10 -428 -44 -256 -147 -459 -327 -645 -470 -485 -1318
-605 -1974 -277 -490 244 -771 714 -724 1212 24 251 152 507 322 641 31 24 56
47 56 50 1 4 -9 9 -22 13 -38 9 -146 84 -210 144 -257 246 -370 658 -273 997
100 347 356 582 691 635 81 12 225 4 310 -19z m5962 -183 c-3 -8 -6 -5 -6 6
-1 11 2 17 5 13 3 -3 4 -12 1 -19z m-7658 -94 c-13 -43 -25 -72 -27 -65 -5 15
37 155 45 148 3 -3 -5 -40 -18 -83z m7678 -16 c-3 -8 -6 -5 -6 6 -1 11 2 17 5
13 3 -3 4 -12 1 -19z m10 -60 c-3 -8 -6 -5 -6 6 -1 11 2 17 5 13 3 -3 4 -12 1
-19z m10 -65 c-3 -10 -5 -2 -5 17 0 19 2 27 5 18 2 -10 2 -26 0 -35z m-2970
15 c-3 -8 -6 -5 -6 6 -1 11 2 17 5 13 3 -3 4 -12 1 -19z m-4770 -20 c-3 -8 -6
-5 -6 6 -1 11 2 17 5 13 3 -3 4 -12 1 -19z m4780 -30 c-3 -8 -6 -5 -6 6 -1 11
2 17 5 13 3 -3 4 -12 1 -19z m-4793 -47 c-4 -28 -9 -50 -11 -47 -3 3 -2 28 2
56 4 28 9 49 12 47 2 -3 1 -28 -3 -56z m7779 -86 l6 -70 -14 85 c-7 47 -13 96
-13 110 1 40 15 -47 21 -125z m-2976 68 c-3 -10 -5 -2 -5 17 0 19 2 27 5 18 2
-10 2 -26 0 -35z m191 -78 c52 -16 122 -71 122 -96 0 -8 -22 -22 -49 -32 -66
-23 -140 -85 -187 -154 -21 -32 -41 -61 -44 -65 -3 -4 -4 70 -3 165 l1 172 44
12 c57 15 57 15 116 -2z m-5053 -1 c20 -5 21 -13 20 -179 0 -96 -2 -171 -5
-167 -3 4 -23 33 -44 64 -46 69 -107 121 -181 153 -50 22 -55 27 -45 45 12 23
66 65 100 79 27 11 123 14 155 5z m7852 -126 c-2 -13 -4 -3 -4 22 0 25 2 35 4
23 2 -13 2 -33 0 -45z m20 -218 c0 -54 0 -53 -7 15 -4 39 -7 93 -7 120 0 47 0
46 7 -15 4 -36 7 -90 7 -120z m-7557 -306 c50 -157 163 -361 276 -501 15 -18
22 -33 16 -33 -12 0 -92 100 -146 183 -51 79 -139 275 -164 367 -26 94 -52
234 -51 269 0 14 9 -21 19 -80 10 -58 33 -150 50 -205z m7567 -201 c-1 -76 -3
-14 -3 137 0 151 2 213 3 138 2 -76 2 -200 0 -275z m-3253 266 c-23 -99 -95
-276 -151 -374 -41 -70 -122 -182 -152 -209 -45 -41 -27 -5 44 90 112 147 185
300 260 542 3 6 6 12 9 12 2 0 -2 -28 -10 -61z m3243 -496 c-2 -16 -4 -5 -4
22 0 28 2 40 4 28 2 -13 2 -35 0 -50z m-7593 -328 c-44 -132 -61 -154 -23 -29
21 70 60 167 64 162 1 -2 -17 -61 -41 -133z m4352 52 c27 -88 54 -191 53 -207
0 -8 -16 38 -35 103 -18 65 -38 126 -44 137 -13 24 -13 33 0 25 5 -3 17 -29
26 -58z m-4399 -209 c-3 -8 -6 -5 -6 6 -1 11 2 17 5 13 3 -3 4 -12 1 -19z
m-10 -65 c-3 -10 -5 -4 -5 12 0 17 2 24 5 18 2 -7 2 -21 0 -30z m4470 15 c-3
-8 -6 -5 -6 6 -1 11 2 17 5 13 3 -3 4 -12 1 -19z m-4480 -110 c-2 -13 -4 -5
-4 17 -1 22 1 32 4 23 2 -10 2 -28 0 -40z m4643 -228 c6 -11 8 -20 6 -20 -3 0
-10 9 -16 20 -6 11 -8 20 -6 20 3 0 10 -9 16 -20z m-4404 -225 c-4 -13 -36
163 -35 190 0 11 9 -25 20 -80 10 -55 17 -104 15 -110z m4450 143 c36 -70 78
-198 101 -300 13 -62 18 -128 18 -258 0 -186 -8 -245 -57 -445 -16 -66 -32
-130 -35 -141 -4 -18 6 -27 60 -58 180 -100 293 -269 332 -494 15 -85 12 -108
-5 -41 -30 120 -55 190 -87 249 -44 80 -189 226 -256 258 -57 28 -68 47 -62
104 l5 43 -16 -30 -15 -30 6 30 c4 22 3 26 -5 15 -14 -21 -13 -63 2 -54 6 4 8
3 5 -3 -3 -5 3 -25 15 -44 11 -19 17 -31 13 -27 -12 11 -36 -12 -28 -26 4 -6
-1 -5 -11 3 -13 11 -17 25 -14 52 2 21 1 36 -2 34 -3 -2 -5 9 -4 26 1 16 -3
32 -9 36 -5 3 -7 1 -4 -4 8 -13 -17 -35 -29 -25 -4 4 -2 -1 5 -10 11 -15 11
-18 0 -19 -10 0 -11 -2 -1 -6 6 -2 12 -9 12 -14 0 -6 -4 -7 -10 -4 -5 3 -19 8
-29 10 -15 3 -18 0 -14 -13 6 -15 5 -16 -12 -2 -11 9 -16 10 -11 3 4 -7 2 -13
-3 -13 -6 0 -11 -4 -11 -8 0 -5 7 -9 15 -9 8 0 12 3 10 7 -2 4 2 7 10 7 8 0
15 -4 15 -9 0 -4 -4 -8 -10 -8 -5 0 -10 -5 -10 -11 0 -5 6 -7 13 -3 8 5 8 2
-2 -9 -14 -18 -22 -22 -20 -9 3 20 -2 33 -11 27 -6 -4 -8 -10 -5 -15 3 -5 0
-12 -6 -16 -7 -4 -9 -3 -5 4 3 6 2 13 -3 17 -6 3 -8 13 -5 23 5 15 5 15 -6 -1
-6 -9 -9 -21 -5 -26 3 -5 1 -12 -4 -15 -5 -4 -8 5 -6 19 1 14 -1 27 -5 30 -4
2 -7 -2 -8 -10 -1 -8 -3 -22 -4 -30 -1 -8 -5 -12 -9 -10 -4 3 -5 14 -2 24 3
10 0 21 -5 25 -5 3 -9 -1 -8 -9 0 -7 -3 -14 -9 -14 -5 0 -9 7 -9 14 1 8 -2 12
-7 9 -5 -3 -7 -17 -5 -31 3 -14 2 -23 -1 -19 -3 3 -12 1 -19 -5 -9 -7 -12 -6
-9 8 1 10 8 17 13 16 7 -2 9 4 5 14 -4 11 -8 13 -11 5 -3 -10 -7 -10 -20 0
-15 11 -15 11 -5 -2 8 -10 9 -21 3 -30 -8 -13 -10 -12 -10 3 0 9 -5 17 -11 17
-5 0 -7 6 -3 13 5 9 4 9 -6 0 -10 -10 -17 -10 -27 -1 -9 7 -13 8 -11 1 2 -6
-1 -11 -7 -12 -5 0 -10 8 -9 18 1 10 -5 18 -12 18 -9 0 -10 -5 -5 -11 5 -6 7
-19 6 -29 -2 -9 0 -15 4 -12 4 2 8 -2 8 -9 0 -15 -21 -15 -34 -1 -4 4 -2 5 4
1 9 -5 11 -2 6 10 -6 15 -7 15 -15 0 -7 -12 -13 -14 -22 -7 -9 8 -13 7 -13 -3
0 -8 8 -13 18 -11 11 2 18 -2 16 -8 -1 -7 4 -11 11 -9 8 1 11 -2 7 -9 -5 -7
-10 -8 -18 0 -7 7 -15 7 -24 -1 -11 -9 -13 -8 -11 2 2 8 -5 14 -17 14 -12 0
-19 -6 -17 -14 3 -11 0 -11 -12 -1 -8 7 -13 20 -11 30 2 10 -2 18 -9 18 -7 0
-13 -6 -13 -13 0 -7 5 -11 10 -7 5 3 2 -6 -7 -19 -9 -14 -13 -28 -9 -33 5 -4
3 -5 -4 -1 -7 4 -9 14 -6 23 5 12 3 14 -8 7 -20 -12 -38 -14 -45 -3 -3 5 -10
6 -16 3 -7 -4 -8 -2 -4 5 4 6 20 18 37 26 26 14 29 14 29 0 0 -9 -4 -14 -9
-11 -5 3 -14 0 -20 -7 -8 -10 -7 -14 4 -14 8 0 12 4 9 8 -2 4 4 6 15 4 17 -3
19 0 11 20 -7 20 -5 25 11 30 11 4 18 9 16 12 -7 6 -82 -33 -147 -77 -61 -42
-183 -163 -227 -225 -83 -117 -220 -389 -259 -514 -11 -34 -22 -61 -26 -61
-13 0 -10 10 47 159 94 244 201 434 309 550 57 61 175 149 248 185 95 47 213
76 304 76 l73 0 25 83 c55 180 85 365 87 527 1 78 3 90 11 65 5 -16 10 -86 9
-154 0 -124 6 -162 10 -63 2 28 6 52 10 52 4 0 5 10 3 23 -4 20 -4 20 5 2 4
-11 7 -23 4 -27 -8 -14 -12 -51 -5 -44 7 7 8 11 11 37 0 5 6 7 11 4 6 -4 7
-12 4 -18 -4 -7 -3 -8 2 -4 5 5 10 13 10 18 1 5 2 14 3 20 0 5 6 7 11 4 6 -4
7 -12 3 -18 -3 -7 3 -3 15 7 12 11 22 24 22 30 0 6 -5 4 -10 -4 -9 -13 -10
-13 -10 0 0 13 -1 13 -10 0 -9 -13 -10 -13 -10 0 0 13 -2 13 -9 1 -7 -10 -9
-4 -8 22 2 31 25 75 28 54 1 -4 2 -13 3 -19 1 -7 8 -12 15 -10 7 1 10 -1 7 -6
-2 -4 -1 -14 5 -22 7 -12 9 -9 10 10 l1 25 8 -25 c8 -24 8 -24 10 -2 4 36 5
40 10 45 3 3 5 -20 6 -51 1 -43 -1 -51 -7 -32 -7 21 -8 19 -4 -9 4 -28 3 -31
-9 -22 -8 7 -12 22 -10 34 2 12 1 15 -2 7 -4 -8 -16 -26 -28 -40 l-21 -25 21
18 c20 16 22 16 35 1 7 -9 14 -27 15 -40 2 -40 11 -37 13 3 7 166 7 207 -1
273 -11 99 -49 245 -92 353 -19 48 -33 87 -30 87 2 0 16 -24 30 -52z m-4880
-7 c-9 -16 -18 -43 -21 -61 -3 -18 -10 -40 -15 -49 -22 -42 -62 -273 -65 -381
-4 -110 -4 -112 6 -45 6 39 11 79 11 90 0 11 2 14 5 7 4 -10 8 -10 21 0 15 11
15 11 5 -3 -17 -22 -3 -33 14 -11 13 15 13 15 3 -5 -8 -18 -8 -23 2 -24 10 0
10 -2 0 -6 -6 -2 -10 -9 -7 -13 3 -5 1 -11 -5 -15 -5 -3 -11 1 -11 9 -3 30 -4
34 -13 43 -5 4 -5 -7 -2 -27 5 -25 4 -31 -3 -20 -8 12 -10 11 -8 -7 1 -15 5
-19 13 -12 13 11 38 -13 26 -26 -4 -5 -1 -5 6 -1 7 4 10 11 7 16 -3 5 -1 11 4
14 5 3 11 -3 14 -14 3 -14 11 -18 27 -15 17 3 20 1 15 -13 -5 -13 -3 -14 6 -5
13 13 3 36 -13 27 -6 -4 -8 1 -4 14 7 22 -8 39 -19 22 -3 -5 -2 -10 4 -10 6 0
8 -7 4 -17 -5 -14 -8 -13 -15 6 -5 14 -12 20 -20 15 -7 -4 -5 1 4 12 14 16 15
23 5 34 -9 11 -7 11 7 0 11 -8 22 -14 25 -12 3 1 7 -1 7 -5 5 -28 17 -52 24
-48 4 3 7 -8 6 -24 -1 -17 1 -28 5 -25 4 2 10 -2 13 -8 3 -7 3 -3 0 10 -6 25
5 107 13 98 3 -3 9 -60 14 -126 14 -207 53 -398 136 -666 l47 -151 111 -6
c363 -17 644 -279 685 -637 34 -303 -141 -610 -418 -732 -131 -58 -322 -75
-460 -43 -201 47 -386 195 -475 378 -56 115 -71 184 -71 327 1 109 4 135 28
205 42 123 90 201 180 291 112 112 232 178 379 209 24 5 27 8 17 20 -10 12
-15 12 -36 -2 -14 -9 -48 -18 -77 -20 -41 -3 -57 -9 -74 -30 -17 -19 -24 -22
-27 -12 -49 141 -118 407 -147 564 -30 160 -33 453 -6 590 26 130 103 355 122
355 3 0 -1 -13 -9 -29z m557 -466 c105 -210 275 -423 452 -571 60 -49 119 -99
131 -110 13 -12 25 -20 27 -18 2 2 16 -7 30 -20 14 -13 28 -22 30 -20 2 2 4
-3 4 -10 0 -10 -26 3 -74 36 -40 28 -71 54 -68 58 5 7 -19 22 -38 24 -5 1 -15
10 -23 20 -8 11 -14 16 -14 12 0 -15 -245 242 -297 312 -135 182 -254 426
-277 567 -3 22 11 -12 33 -75 21 -64 59 -156 84 -205z m3767 3 c-29 -62 -59
-120 -66 -129 -8 -9 -13 -18 -12 -20 2 -2 1 -3 -1 -1 -6 3 -56 -81 -53 -90 1
-5 -2 -8 -8 -8 -5 0 -9 -3 -7 -7 1 -5 -2 -9 -8 -11 -11 -4 -23 -22 -24 -35 0
-5 -11 -17 -25 -28 -14 -11 -25 -24 -23 -28 2 -8 -8 -20 -93 -114 -29 -31 -55
-56 -57 -54 -2 2 -35 -27 -74 -65 -40 -38 -74 -67 -76 -64 -2 2 -16 -7 -31
-21 -42 -39 -137 -101 -242 -156 -52 -27 -99 -53 -105 -57 -33 -26 -333 -136
-343 -126 -2 2 27 14 65 26 109 36 311 133 426 203 354 217 633 521 773 842
16 35 30 62 32 60 2 -2 -19 -55 -48 -117z m3215 -73 c-10 -25 -20 -44 -22 -42
-2 2 5 25 14 50 9 25 19 44 21 42 2 -2 -4 -24 -13 -50z m-2688 1 c0 -6 3 -24
7 -40 4 -18 3 -25 -4 -21 -5 3 -10 17 -10 31 0 14 -4 23 -8 20 -5 -3 -9 1 -9
8 0 7 6 13 12 13 6 0 12 -5 12 -11z m2622 -175 c-6 -18 -13 -30 -15 -28 -2 2
1 18 7 36 6 18 13 30 15 28 2 -2 -1 -18 -7 -36z m-58 -138 c-12 -20 -14 -14
-5 12 4 9 9 14 11 11 3 -2 0 -13 -6 -23z m-30 -70 c-12 -20 -14 -14 -5 12 4 9
9 14 11 11 3 -2 0 -13 -6 -23z m-35 -76 c-17 -42 -45 -94 -46 -86 0 10 51 119
56 119 2 0 -2 -15 -10 -33z m-2517 -183 c0 -32 7 -64 13 -73 11 -14 11 -14 -4
-3 -9 8 -19 26 -21 40 -3 18 -5 15 -4 -10 1 -20 -2 -41 -7 -45 -4 -4 -7 -3 -6
2 4 19 0 78 -5 74 -2 -3 -5 -19 -7 -37 -3 -42 -10 -32 -12 18 -1 22 0 37 3 32
13 -17 36 -6 37 18 3 63 11 53 13 -16z m2383 -87 c-177 -336 -410 -680 -678
-1002 -124 -149 -452 -481 -599 -607 -426 -365 -903 -662 -1416 -881 -210 -90
-602 -223 -794 -271 -234 -58 -244 -50 -15 13 290 78 419 120 617 197 176 69
431 184 473 214 14 10 30 19 35 20 26 6 49 18 182 93 79 44 140 83 137 88 -3
5 1 6 8 4 8 -3 22 2 33 10 19 15 19 16 -5 4 -20 -9 -23 -9 -13 1 7 7 22 14 35
14 30 2 109 56 101 69 -3 5 -1 7 5 3 6 -3 16 -1 24 6 7 7 20 14 28 16 22 5 71
43 66 51 -3 4 7 17 22 28 47 34 58 38 37 13 l-20 -23 27 18 c15 9 25 21 23 26
-3 4 19 26 49 48 56 42 73 50 60 29 -4 -7 -3 -8 5 -4 6 4 9 11 6 15 -2 5 23
30 58 57 161 126 359 304 537 483 107 107 182 180 165 161 l-30 -35 33 30 c18
16 31 34 29 39 -2 6 33 53 77 106 99 116 223 277 300 388 32 45 60 82 63 82 7
0 -19 -40 -66 -105 -21 -27 -56 -76 -79 -107 -24 -32 -39 -58 -35 -58 4 0 18
15 31 33 12 17 40 55 63 82 52 65 199 284 199 297 0 6 -7 4 -16 -3 -9 -8 -2
10 16 39 17 28 34 52 37 52 2 0 -5 -16 -17 -36 -12 -19 -20 -37 -17 -40 10
-10 131 192 232 389 25 48 48 87 51 87 3 0 -26 -60 -64 -133z m-5893 -9 c13
-10 27 -16 31 -13 4 2 15 -4 25 -15 10 -11 22 -17 26 -14 5 3 9 0 9 -6 0 -6 4
-9 9 -5 5 3 16 -2 25 -10 8 -9 19 -15 23 -15 4 1 28 -8 53 -19 25 -10 75 -32
112 -47 71 -30 85 -42 27 -23 -63 20 -268 111 -286 128 -10 9 -25 17 -33 19
-23 5 -100 53 -100 63 0 9 33 -9 79 -43z m3227 27 c2 -13 0 -15 -8 -7 -8 8
-15 8 -24 1 -9 -7 -12 -5 -9 8 2 10 4 19 4 20 1 1 9 0 18 -1 9 -2 18 -11 19
-21z m-51 -95 c-11 -5 -27 -9 -35 -9 -9 0 -8 4 5 9 11 5 27 9 35 9 9 0 8 -4
-5 -9z m284 -1 c48 -17 32 -20 -19 -4 -25 7 -38 14 -29 14 9 1 30 -4 48 -10z
m305 2 c3 -5 -1 -14 -8 -20 -12 -10 -14 -9 -11 6 2 10 4 19 4 21 2 5 10 2 15
-7z m-3216 -152 c68 -16 156 -34 195 -40 40 -6 83 -13 97 -16 47 -10 445 -12
510 -3 147 21 268 42 324 56 32 8 60 13 63 11 9 -10 -230 -62 -327 -72 -30 -4
-68 -9 -85 -11 -39 -7 -389 -7 -435 0 -19 3 -73 10 -120 16 -99 13 -301 61
-351 84 -19 9 -25 14 -14 10 11 -3 75 -19 143 -35z m3230 -224 c0 -16 -2 -15
-8 5 -11 34 -11 60 0 35 5 -11 8 -29 8 -40z m9 -62 c-3 -10 -5 -4 -5 12 0 17
2 24 5 18 2 -7 2 -21 0 -30z m0 -205 c-3 -8 -6 -5 -6 6 -1 11 2 17 5 13 3 -3
4 -12 1 -19z m-13 -72 c-3 -21 -8 -35 -11 -32 -2 2 -1 20 3 40 3 21 8 35 11
32 2 -2 1 -20 -3 -40z m-1374 -120 c0 -3 -5 -17 -10 -33 -9 -26 -9 -27 5 -9 8
11 15 23 15 27 0 4 12 4 27 0 31 -8 55 -41 35 -48 -6 -3 -10 -9 -6 -14 3 -5 1
-9 -3 -9 -5 0 -8 -12 -7 -27 0 -16 -10 -66 -23 -113 -36 -131 -28 -193 34
-261 28 -31 32 -39 17 -39 -9 0 -25 -7 -35 -16 -13 -12 -19 -12 -25 -3 -5 8
-3 10 6 4 9 -5 11 -4 6 4 -11 16 -28 2 -22 -18 5 -12 2 -11 -9 3 -8 11 -15 24
-15 29 0 4 -5 5 -12 1 -6 -4 -8 -3 -4 4 3 6 2 13 -4 17 -15 9 -12 22 5 22 9 0
14 -5 12 -12 -3 -6 1 -19 8 -28 11 -15 13 -16 18 -2 4 8 3 14 -1 12 -4 -1 -8
1 -9 6 -6 16 -3 27 8 27 5 0 7 -5 3 -12 -4 -6 -3 -8 4 -4 7 4 6 15 -4 34 -8
15 -17 44 -20 65 -4 20 -11 40 -17 44 -6 4 -7 1 -2 -7 6 -9 4 -12 -7 -8 -11 5
-14 -2 -14 -31 0 -25 -4 -35 -14 -33 -11 3 -11 0 0 -12 14 -17 25 -22 15 -7
-3 5 -1 12 4 16 6 3 7 13 4 23 -3 9 -3 14 1 11 4 -4 9 -23 11 -42 3 -38 -8
-43 -41 -17 -18 14 -18 14 -4 -4 14 -18 13 -19 -4 -13 -16 7 -18 4 -12 -25 6
-30 5 -31 -7 -13 -50 73 -48 195 8 365 44 135 51 150 70 150 8 0 15 -2 15 -4z
m1287 -323 c-3 -10 -10 -33 -15 -50 -7 -20 -7 -33 -1 -33 5 0 9 6 9 13 0 9 3
8 9 -2 5 -7 7 -21 6 -30 -2 -9 -4 -18 -4 -20 -1 -3 -8 4 -16 15 -14 18 -15 17
-5 -8 7 -22 6 -26 -5 -21 -8 3 -12 10 -8 17 4 8 3 8 -5 1 -7 -6 -31 -51 -55
-100 -30 -61 -59 -103 -89 -131 -49 -46 -108 -71 -133 -56 -13 7 -7 11 25 22
48 16 113 69 144 119 13 20 42 83 66 141 52 128 58 140 72 140 5 0 8 -8 5 -17z
m-1287 -148 c0 -5 -5 -3 -10 5 -5 8 -10 20 -10 25 0 6 5 3 10 -5 5 -8 10 -19
10 -25z m305 -26 c22 -6 56 -28 77 -49 35 -34 38 -43 38 -91 0 -74 -24 -118
-80 -146 -80 -40 -129 -37 -197 13 -17 13 -36 24 -42 24 -29 0 -42 100 -20
157 12 33 56 82 84 93 29 12 94 12 140 -1z m511 -113 c28 -7 62 -21 76 -30 47
-31 63 -106 38 -181 -10 -32 -50 -78 -50 -58 0 5 -19 10 -42 12 -134 7 -171
11 -186 23 -13 11 -15 11 -10 -2 20 -51 19 -54 -11 -23 -16 18 -33 48 -37 69
-14 75 38 163 111 189 50 18 49 18 111 1z m-46 -302 c0 -2 -12 -4 -26 -4 -14
0 -23 4 -20 9 6 8 46 4 46 -5z m-3353 -910 c-3 -3 -12 -4 -19 -1 -8 3 -5 6 6
6 11 1 17 -2 13 -5z m246 -61 c-7 -2 -19 -2 -25 0 -7 3 -2 5 12 5 14 0 19 -2
13 -5z m2104 -19 c-3 -3 -12 -4 -19 -1 -8 3 -5 6 6 6 11 1 17 -2 13 -5z
m-1960 -10 c-3 -3 -12 -4 -19 -1 -8 3 -5 6 6 6 11 1 17 -2 13 -5z m93 -14 c20
-6 21 -8 5 -8 -11 0 -33 4 -50 8 -27 7 -27 8 -5 8 14 0 36 -4 50 -8z m1725 1
c-12 -11 -281 -51 -332 -50 -33 1 -30 3 17 10 30 4 82 11 115 14 46 6 173 26
205 34 2 1 0 -3 -5 -8z m-1508 -37 c-3 -3 -12 -4 -19 -1 -8 3 -5 6 6 6 11 1
17 -2 13 -5z m1121 -21 c-10 -2 -28 -2 -40 0 -13 2 -5 4 17 4 22 1 32 -1 23
-4z m-815 -10 c-13 -2 -35 -2 -50 0 -16 2 -5 4 22 4 28 0 40 -2 28 -4z m617
-3 c0 -5 -10 -10 -22 -9 -22 0 -22 1 -3 9 11 5 21 9 23 9 1 1 2 -3 2 -9z m88
3 c-16 -2 -40 -2 -55 0 -16 2 -3 4 27 4 30 0 43 -2 28 -4z m-511 -9 c-3 -3
-12 -4 -19 -1 -8 3 -5 6 6 6 11 1 17 -2 13 -5z m101 -1 c-10 -2 -28 -2 -40 0
-13 2 -5 4 17 4 22 1 32 -1 23 -4z m269 1 c-3 -3 -12 -4 -19 -1 -8 3 -5 6 6 6
11 1 17 -2 13 -5z"/>
<path d="M5380 6980 c-117 -25 -225 -116 -283 -237 -28 -61 -32 -80 -35 -173
-3 -86 0 -111 15 -140 27 -52 51 -50 114 10 98 92 210 130 330 110 76 -13 143
-48 217 -115 47 -43 56 -47 77 -37 34 16 48 78 42 184 -9 177 -110 317 -273
381 -53 20 -147 28 -204 17z"/>
<path d="M6989 6980 c-131 -22 -256 -134 -304 -271 -49 -137 -30 -319 31 -319
8 0 37 21 66 48 76 68 117 91 198 108 126 26 237 -8 346 -107 65 -59 90 -61
117 -9 15 29 18 54 15 140 -3 93 -7 113 -35 172 -57 122 -166 211 -291 237
-58 12 -76 12 -143 1z"/>
<path d="M5820 6032 c-50 -27 -85 -95 -76 -147 12 -62 75 -118 161 -144 39
-11 100 -35 138 -53 64 -30 68 -31 85 -15 27 27 23 158 -7 215 -68 133 -202
196 -301 144z"/>
<path d="M6525 6031 c-91 -41 -155 -142 -163 -256 -3 -58 -1 -74 14 -93 l19
-23 77 35 c42 20 84 36 92 36 40 0 127 43 160 80 119 132 -31 298 -199 221z"/>
<path d="M5162 5077 c-13 -13 -22 -36 -22 -53 0 -81 216 -319 383 -423 335
-207 793 -256 1184 -126 190 63 341 155 476 289 98 98 187 224 187 266 0 51
-74 89 -111 58 -8 -7 -31 -38 -52 -69 -77 -116 -234 -243 -384 -310 -183 -84
-360 -121 -573 -121 -204 0 -387 38 -567 118 -143 63 -315 204 -388 319 -51
79 -92 95 -133 52z"/>
<path d="M8697 4493 c-9 -19 0 -46 16 -49 21 -3 22 9 2 26 -8 7 -12 16 -9 21
3 5 3 9 0 9 -3 0 -7 -3 -9 -7z"/>
<path d="M8616 4268 c3 -5 10 -6 15 -3 13 9 11 12 -6 12 -8 0 -12 -4 -9 -9z"/>
<path d="M8575 4059 c-4 -6 -5 -12 -2 -15 2 -3 7 2 10 11 7 17 1 20 -8 4z"/>
<path d="M8316 3841 c-4 -5 3 -7 14 -4 23 6 26 13 6 13 -8 0 -17 -4 -20 -9z"/>
<path d="M8672 3807 c0 -31 2 -36 14 -26 9 7 11 16 5 23 -4 6 -11 18 -13 26
-3 8 -6 -2 -6 -23z"/>
<path d="M8186 3743 c-6 -14 -5 -15 5 -6 7 7 10 15 7 18 -3 3 -9 -2 -12 -12z"/>
<path d="M3809 4503 c-13 -16 -12 -17 4 -4 9 7 17 15 17 17 0 8 -8 3 -21 -13z"/>
<path d="M3739 4443 c-13 -16 -12 -17 4 -4 16 13 21 21 13 21 -2 0 -10 -8 -17
-17z"/>
<path d="M3867 4369 c7 -7 15 -10 18 -7 3 3 -2 9 -12 12 -14 6 -15 5 -6 -5z"/>
<path d="M4057 3335 c-180 -50 -329 -205 -366 -383 -53 -252 112 -511 366
-577 223 -58 463 55 567 266 74 153 69 309 -15 456 -108 189 -350 293 -552
238z m274 -152 c77 -36 140 -98 177 -173 24 -48 27 -67 27 -150 0 -84 -3 -102
-29 -157 -75 -163 -267 -241 -447 -183 -101 33 -159 82 -203 172 -49 99 -56
171 -27 266 65 216 300 321 502 225z"/>
<path d="M4129 3056 c-62 -16 -103 -48 -128 -99 -31 -63 -25 -80 7 -24 16 26
31 45 35 42 4 -3 5 -2 2 2 -3 3 0 12 6 20 9 10 15 11 26 2 11 -9 12 -9 8 3 -8
21 35 19 53 -2 10 -11 12 -11 6 -1 -5 11 -2 13 14 9 13 -4 22 -1 22 5 0 7 5 5
10 -3 5 -8 10 -10 10 -4 0 9 51 12 80 5 10 -2 63 -51 56 -51 -4 0 0 -7 8 -16
9 -8 14 -20 11 -25 -4 -5 -1 -9 4 -9 6 0 12 -17 12 -37 1 -26 3 -31 6 -14 17
87 -69 188 -172 204 -16 2 -51 -1 -76 -7z"/>
<path d="M4100 3006 c0 -2 8 -10 18 -17 15 -13 16 -12 3 4 -13 16 -21 21 -21
13z"/>
<path d="M4315 2718 c-30 -31 -33 -37 -13 -24 22 14 66 66 56 66 -2 0 -21 -19
-43 -42z"/>
<path d="M7809 4073 c-13 -16 -12 -17 4 -4 16 13 21 21 13 21 -2 0 -10 -8 -17
-17z"/>
<path d="M7629 3913 c-13 -16 -12 -17 4 -4 16 13 21 21 13 21 -2 0 -10 -8 -17
-17z"/>
<path d="M10470 2922 c-19 -25 -75 -92 -123 -149 -48 -57 -84 -103 -80 -103 4
0 22 17 40 38 17 20 46 53 63 72 46 52 143 181 139 185 -2 2 -20 -18 -39 -43z"/>
<path d="M10040 2438 c-85 -87 -153 -158 -150 -158 9 0 314 309 310 313 -3 2
-75 -68 -160 -155z"/>
<path d="M9829 2233 l-34 -38 38 34 c20 19 37 36 37 38 0 8 -8 0 -41 -34z"/>
<path d="M9740 2155 c-24 -25 -42 -45 -39 -45 3 0 25 20 49 45 24 25 42 45 39
45 -3 0 -25 -20 -49 -45z"/>
<path d="M9664 2088 l-19 -23 23 19 c21 18 27 26 19 26 -2 0 -12 -10 -23 -22z"/>
<path d="M9600 2037 c-14 -12 -39 -32 -55 -45 l-30 -23 30 15 c17 8 43 28 59
45 35 36 32 40 -4 8z"/>
<path d="M9392 1879 c-24 -17 -41 -33 -39 -36 3 -2 13 2 24 11 10 8 29 24 43
35 38 31 21 24 -28 -10z"/>
<path d="M9270 1790 c-9 -6 -10 -10 -3 -10 6 0 15 5 18 10 8 12 4 12 -15 0z"/>
<path d="M7575 2710 c3 -5 8 -10 11 -10 2 0 4 5 4 10 0 6 -5 10 -11 10 -5 0
-7 -4 -4 -10z"/>
<path d="M7569 2688 c-6 -21 -5 -37 2 -32 5 3 7 9 4 14 -3 4 1 11 7 13 10 4
10 6 1 6 -7 1 -13 0 -14 -1z"/>
<path d="M7433 2460 c0 -25 2 -35 4 -22 2 12 2 32 0 45 -2 12 -4 2 -4 -23z"/>
<path d="M7660 2089 c0 -13 41 -37 75 -44 76 -15 92 -16 118 -6 15 6 27 16 27
22 0 7 -2 10 -6 7 -3 -3 -21 -2 -40 2 -23 5 -34 4 -34 -4 0 -7 -3 -6 -9 2 -12
19 -15 19 -36 2 -11 -9 -16 -10 -11 -2 4 6 4 12 -1 12 -4 0 -25 4 -45 9 -22 5
-38 5 -38 0z"/>
<path d="M2649 10893 l-24 -26 27 19 c15 10 28 22 28 27 0 12 -5 8 -31 -20z"/>
<path d="M2144 10408 l-19 -23 23 19 c21 18 27 26 19 26 -2 0 -12 -10 -23 -22z"/>
<path d="M11964 6375 c0 -99 2 -138 3 -87 2 51 2 132 0 180 -1 48 -3 6 -3 -93z"/>
</g>
</svg>
